<svg width="381" height="100" viewBox="0 0 381 100" fill="none" xmlns="http://www.w3.org/2000/svg">
<path d="M44.25 24.2812C44.25 25.4688 44.0938 26.7188 43.7812 28.0312C43.5312 29.3438 43.0938 30.5625 42.4688 31.6875C41.8438 32.8125 41.0312 33.75 40.0312 34.5C39.0312 35.25 37.8125 35.625 36.375 35.625C34.1875 35.625 32.5625 35.25 31.5 34.5C30.4375 33.6875 29.6875 32.6875 29.25 31.5C28.8125 30.3125 28.5625 29.0625 28.5 27.75C28.5 26.375 28.4688 25.0938 28.4062 23.9062C28.3438 22.7188 28.125 21.75 27.75 21C27.4375 20.1875 26.7188 19.7812 25.5938 19.7812C24.3438 19.7812 23.25 20.25 22.3125 21.1875C21.375 22.0625 20.5625 23.2188 19.875 24.6562C19.1875 26.0938 18.5938 27.7188 18.0938 29.5312C17.6562 31.3438 17.2812 33.1562 16.9688 34.9688C16.7188 36.7188 16.5312 38.4062 16.4062 40.0312C16.2812 41.5938 16.2188 42.875 16.2188 43.875C16.2188 45.1875 16.25 46.75 16.3125 48.5625C16.4375 50.375 16.75 52.125 17.25 53.8125C17.75 55.4375 18.5 56.8438 19.5 58.0312C20.5 59.1562 21.9375 59.7188 23.8125 59.7188C25.0625 59.7188 26.2812 59.5625 27.4688 59.25C28.6562 58.9375 29.8438 58.5938 31.0312 58.2188C32.2188 57.7812 33.4062 57.4062 34.5938 57.0938C35.8438 56.7812 37.0938 56.625 38.3438 56.625C39.7812 56.625 40.9688 57.2188 41.9062 58.4062C42.8438 59.5312 43.3125 60.8125 43.3125 62.25C43.3125 64.25 42.6875 66.125 41.4375 67.875C40.1875 69.5625 38.625 71.0625 36.75 72.375C34.9375 73.6875 32.9375 74.7188 30.75 75.4688C28.625 76.2188 26.6875 76.5938 24.9375 76.5938C20.4375 76.5938 16.625 75.5625 13.5 73.5C10.375 71.5 7.84375 68.9062 5.90625 65.7188C3.96875 62.4688 2.5625 58.875 1.6875 54.9375C0.875 50.9375 0.46875 46.9688 0.46875 43.0312C0.46875 40.4062 0.71875 37.5312 1.21875 34.4062C1.71875 31.2812 2.46875 28.1562 3.46875 25.0312C4.46875 21.8438 5.71875 18.7812 7.21875 15.8438C8.78125 12.9062 10.5938 10.3125 12.6562 8.0625C14.7188 5.8125 17.0312 4 19.5938 2.625C22.2188 1.25 25.0938 0.5625 28.2188 0.5625C31.2812 0.5625 33.8438 1.34375 35.9062 2.90625C37.9688 4.40625 39.625 6.34375 40.875 8.71875C42.125 11.0312 43 13.5938 43.5 16.4062C44 19.1562 44.25 21.7812 44.25 24.2812ZM87.8438 58.7812C87.8438 59.9062 87.7812 61.375 87.6562 63.1875C87.5938 65 87.3438 66.7812 86.9062 68.5312C86.4688 70.2188 85.7812 71.6875 84.8438 72.9375C83.9062 74.1875 82.5938 74.8125 80.9062 74.8125C78.5938 74.8125 76.8125 74.0625 75.5625 72.5625C74.3125 71.0625 73.7188 69.1875 73.7812 66.9375C71.7812 68.6875 69.5 70.0625 66.9375 71.0625C64.4375 72.0625 61.875 72.5625 59.25 72.5625C57.4375 72.5625 55.7188 72.125 54.0938 71.25C52.4688 70.375 51.0312 69.25 49.7812 67.875C48.5312 66.5 47.5312 64.9688 46.7812 63.2812C46.0312 61.5312 45.6562 59.8125 45.6562 58.125C45.6562 55.125 46.5625 52.5 48.375 50.25C50.25 48 52.5312 46.0938 55.2188 44.5312C57.9062 42.9062 60.75 41.625 63.75 40.6875C66.8125 39.75 69.5312 39.125 71.9062 38.8125C71.9062 38.5 71.9062 38.2188 71.9062 37.9688C71.9688 37.7188 72 37.4375 72 37.125C72 35.1875 71.4688 33.625 70.4062 32.4375C69.3438 31.25 67.8438 30.6562 65.9062 30.6562C64.3438 30.6562 63 30.9375 61.875 31.5C60.75 32 59.6875 32.5938 58.6875 33.2812C57.6875 33.9062 56.6875 34.5 55.6875 35.0625C54.6875 35.5625 53.5625 35.8125 52.3125 35.8125C50.9375 35.8125 49.75 35.375 48.75 34.5C47.8125 33.625 47.3438 32.5 47.3438 31.125C47.3438 29.0625 47.9375 27.1875 49.125 25.5C50.375 23.8125 51.9062 22.4062 53.7188 21.2812C55.5938 20.0938 57.5938 19.1875 59.7188 18.5625C61.9062 17.875 63.9062 17.5312 65.7188 17.5312C67.4062 17.5312 69.0938 17.75 70.7812 18.1875C72.4688 18.5625 74.0625 19.1875 75.5625 20.0625C77.0625 20.875 78.4062 21.9062 79.5938 23.1562C80.8438 24.3438 81.8438 25.75 82.5938 27.375C83.7188 29.6875 84.625 32.1562 85.3125 34.7812C86 37.3438 86.5312 40 86.9062 42.75C87.2812 45.4375 87.5312 48.1562 87.6562 50.9062C87.7812 53.5938 87.8438 56.2188 87.8438 58.7812ZM72.8438 55.7812L72.5625 49.4062C72.4375 49.4062 72.3125 49.4062 72.1875 49.4062C72.0625 49.3438 71.9375 49.3125 71.8125 49.3125C71 49.3125 69.9688 49.5312 68.7188 49.9688C67.5312 50.3438 66.375 50.9062 65.25 51.6562C64.125 52.3438 63.1562 53.125 62.3438 54C61.5938 54.875 61.2188 55.7812 61.2188 56.7188C61.2188 57.5938 61.5312 58.1875 62.1562 58.5C62.7812 58.8125 63.5 58.9688 64.3125 58.9688C65.6875 58.9688 67.1562 58.625 68.7188 57.9375C70.2812 57.1875 71.6562 56.4688 72.8438 55.7812ZM136.406 44.0625C136.406 46.8125 136.094 49.8438 135.469 53.1562C134.906 56.4062 133.906 59.4375 132.469 62.25C131.094 65.0625 129.25 67.4062 126.938 69.2812C124.688 71.1562 121.844 72.0938 118.406 72.0938C117.531 72.0938 116.625 72.0312 115.688 71.9062C114.75 71.7812 113.844 71.5625 112.969 71.25C112.156 70.9375 111.406 70.5312 110.719 70.0312C110.031 69.4688 109.5 68.75 109.125 67.875L108.281 81.375C108.219 82.8125 108.156 84.5312 108.094 86.5312C108.094 88.5312 107.844 90.4375 107.344 92.25C106.906 94.0625 106.125 95.5938 105 96.8438C103.938 98.1562 102.375 98.8125 100.312 98.8125C99.125 98.8125 98.125 98.1875 97.3125 96.9375C96.5 95.75 95.8438 94.2188 95.3438 92.3438C94.9062 90.4688 94.5625 88.375 94.3125 86.0625C94.0625 83.75 93.9062 81.5312 93.8438 79.4062C93.7812 77.2812 93.75 75.3438 93.75 73.5938C93.75 71.8438 93.75 70.5625 93.75 69.75C93.75 65.5625 93.7188 61.4062 93.6562 57.2812C93.5938 53.0938 93.5625 48.9062 93.5625 44.7188C93.5625 43.9688 93.5625 42.8125 93.5625 41.25C93.5625 39.625 93.625 37.875 93.75 36C93.875 34.125 94.0625 32.1875 94.3125 30.1875C94.625 28.1875 95.0625 26.375 95.625 24.75C96.1875 23.0625 96.9062 21.7188 97.7812 20.7188C98.6562 19.6562 99.7188 19.125 100.969 19.125C101.781 19.125 102.5 19.375 103.125 19.875C103.812 20.3125 104.375 20.9062 104.812 21.6562C105.312 22.3438 105.719 23.0938 106.031 23.9062C106.344 24.7188 106.594 25.4688 106.781 26.1562C108.719 23.9688 110.938 22.3125 113.438 21.1875C116 20.0625 118.719 19.5 121.594 19.5C124.594 19.5 127.031 20.3438 128.906 22.0312C130.844 23.7188 132.344 25.8125 133.406 28.3125C134.531 30.8125 135.312 33.5 135.75 36.375C136.188 39.1875 136.406 41.75 136.406 44.0625ZM123 43.3125C123 42.375 122.906 41.4375 122.719 40.5C122.594 39.5 122.312 38.5938 121.875 37.7812C121.5 36.9062 120.938 36.2188 120.188 35.7188C119.438 35.1562 118.5 34.875 117.375 34.875C115.875 34.875 114.281 35.375 112.594 36.375C110.969 37.3125 109.75 38.4062 108.938 39.6562C108.625 40.1562 108.438 40.9688 108.375 42.0938C108.312 43.2188 108.281 44.0625 108.281 44.625C108.281 45.0625 108.281 45.6562 108.281 46.4062C108.344 47.0938 108.406 47.8125 108.469 48.5625C108.531 49.3125 108.594 50.0312 108.656 50.7188C108.781 51.4062 108.938 51.9375 109.125 52.3125C109.312 52.875 109.719 53.4062 110.344 53.9062C110.969 54.3438 111.656 54.75 112.406 55.125C113.156 55.5 113.906 55.7812 114.656 55.9688C115.469 56.1562 116.156 56.25 116.719 56.25C118.031 56.25 119.094 55.75 119.906 54.75C120.719 53.75 121.344 52.5625 121.781 51.1875C122.281 49.8125 122.594 48.4062 122.719 46.9688C122.906 45.4688 123 44.25 123 43.3125ZM162.469 99.2812C160.969 99.2812 159.25 99.0312 157.312 98.5312C155.438 98.0938 153.656 97.4375 151.969 96.5625C150.281 95.6875 148.844 94.625 147.656 93.375C146.531 92.125 145.969 90.6875 145.969 89.0625C145.969 88.4375 146.125 87.8125 146.438 87.1875C146.75 86.5625 147.156 86 147.656 85.5C148.219 85.0625 148.812 84.6875 149.438 84.375C150.062 84.125 150.719 84 151.406 84C152.156 84 152.875 84.0938 153.562 84.2812C154.312 84.5312 155.062 84.8125 155.812 85.125C156.625 85.4375 157.406 85.7188 158.156 85.9688C158.969 86.2188 159.812 86.3438 160.688 86.3438C162.25 86.3438 163.594 85.8125 164.719 84.75C165.906 83.6875 166.906 82.2812 167.719 80.5312C168.531 78.8438 169.188 76.9375 169.688 74.8125C170.188 72.75 170.562 70.6875 170.812 68.625C171.125 66.5625 171.344 64.625 171.469 62.8125C171.594 61 171.688 59.5312 171.75 58.4062C169.562 61.7188 167.375 64.2812 165.188 66.0938C163.062 67.8438 160.438 68.7188 157.312 68.7188C154.938 68.7188 152.844 68.2188 151.031 67.2188C149.281 66.2188 147.781 64.9062 146.531 63.2812C145.281 61.6562 144.25 59.8125 143.438 57.75C142.625 55.625 142 53.4375 141.562 51.1875C141.188 48.9375 140.938 46.75 140.812 44.625C140.688 42.4375 140.688 40.4375 140.812 38.625C140.875 37.25 141.031 35.4688 141.281 33.2812C141.594 31.0312 142.062 28.8438 142.688 26.7188C143.312 24.5938 144.188 22.8125 145.312 21.375C146.438 19.875 147.906 19.1875 149.719 19.3125C150.906 19.375 151.875 19.9062 152.625 20.9062C153.375 21.8438 153.969 23.0312 154.406 24.4688C154.906 25.9062 155.25 27.5 155.438 29.25C155.688 30.9375 155.844 32.625 155.906 34.3125C155.969 36 155.969 37.5625 155.906 39C155.906 40.375 155.906 41.4375 155.906 42.1875C155.906 43.25 155.938 44.3125 156 45.375C156.062 46.4375 156.281 47.4062 156.656 48.2812C157.031 49.0938 157.594 49.75 158.344 50.25C159.156 50.75 160.281 51 161.719 51C163.344 51 164.625 50.5938 165.562 49.7812C166.562 48.9688 167.281 47.9688 167.719 46.7812C168.219 45.5312 168.531 44.2188 168.656 42.8438C168.781 41.4062 168.844 40.0625 168.844 38.8125C168.844 37.9375 168.844 36.875 168.844 35.625C168.844 34.375 168.844 33.0625 168.844 31.6875C168.906 30.3125 169.031 28.9688 169.219 27.6562C169.469 26.2812 169.812 25.0625 170.25 24C170.75 22.875 171.375 21.9688 172.125 21.2812C172.938 20.5938 173.969 20.25 175.219 20.25C176.781 20.25 178.125 20.875 179.25 22.125C180.375 23.3125 181.312 24.9062 182.062 26.9062C182.875 28.8438 183.5 31 183.938 33.375C184.438 35.75 184.812 38.125 185.062 40.5C185.312 42.8125 185.469 44.9688 185.531 46.9688C185.656 48.9062 185.719 50.4375 185.719 51.5625C185.719 54.1875 185.625 57.1875 185.438 60.5625C185.25 63.875 184.875 67.3125 184.312 70.875C183.812 74.375 183.031 77.8125 181.969 81.1875C180.906 84.625 179.5 87.6875 177.75 90.375C176.062 93.0625 173.969 95.2188 171.469 96.8438C168.969 98.4688 165.969 99.2812 162.469 99.2812ZM213.656 75.375C209.219 75.375 205.75 74.7812 203.25 73.5938C200.812 72.4688 198.969 70.8438 197.719 68.7188C196.531 66.5938 195.812 64.0312 195.562 61.0312C195.312 58.0312 195.188 54.6875 195.188 51C195.188 48.0625 195.281 45.125 195.469 42.1875C195.656 39.1875 195.938 36 196.312 32.625C195.438 32.625 194.75 32.6562 194.25 32.7188C193.75 32.7188 193.344 32.7188 193.031 32.7188C191.031 32.7188 189.312 32.2812 187.875 31.4062C186.375 30.5312 185.625 29.1875 185.625 27.375C185.625 26.25 186.062 25.25 186.938 24.375C187.75 23.5 188.812 22.75 190.125 22.125C191.438 21.5 192.844 21 194.344 20.625C195.906 20.25 197.375 20 198.75 19.875C198.75 18.125 198.875 16.1875 199.125 14.0625C199.375 11.9375 199.812 9.96875 200.438 8.15625C201.125 6.28125 202.031 4.71875 203.156 3.46875C204.281 2.21875 205.719 1.59375 207.469 1.59375C208.469 1.59375 209.344 1.90625 210.094 2.53125C210.906 3.09375 211.562 3.84375 212.062 4.78125C212.562 5.65625 212.938 6.65625 213.188 7.78125C213.438 8.90625 213.562 10 213.562 11.0625C213.562 12.3125 213.469 13.5938 213.281 14.9062C213.094 16.2188 212.75 17.8438 212.25 19.7812C213.312 19.6562 214.031 19.5938 214.406 19.5938C214.781 19.5312 215.125 19.5 215.438 19.5C216.5 19.5 217.594 19.5938 218.719 19.7812C219.906 19.9688 220.969 20.2812 221.906 20.7188C222.906 21.1562 223.719 21.75 224.344 22.5C224.969 23.1875 225.281 24.0312 225.281 25.0312C225.281 26.1562 224.812 27.1562 223.875 28.0312C223 28.9062 221.875 29.6562 220.5 30.2812C219.125 30.9062 217.656 31.4062 216.094 31.7812C214.531 32.0938 213.062 32.3125 211.688 32.4375C211.312 35 211.031 37.375 210.844 39.5625C210.719 41.6875 210.562 43.8438 210.375 46.0312C210.25 47.0938 210.125 48.1875 210 49.3125C209.938 50.375 209.906 51.4688 209.906 52.5938C209.906 53.4062 209.938 54.375 210 55.5C210.062 56.5625 210.281 57.5938 210.656 58.5938C211.031 59.5938 211.625 60.4688 212.438 61.2188C213.25 61.9062 214.375 62.25 215.812 62.25C216.688 62.25 217.594 62.1875 218.531 62.0625C219.469 61.875 220.406 61.7812 221.344 61.7812C222.969 61.7812 224.125 62.3438 224.812 63.4688C225.562 64.5938 225.938 66.0312 225.938 67.7812C225.938 69.0938 225.531 70.25 224.719 71.25C223.969 72.1875 223 72.9375 221.812 73.5C220.625 74.125 219.281 74.5938 217.781 74.9062C216.344 75.2188 214.969 75.375 213.656 75.375ZM267.656 58.7812C267.656 59.9062 267.594 61.375 267.469 63.1875C267.406 65 267.156 66.7812 266.719 68.5312C266.281 70.2188 265.594 71.6875 264.656 72.9375C263.719 74.1875 262.406 74.8125 260.719 74.8125C258.406 74.8125 256.625 74.0625 255.375 72.5625C254.125 71.0625 253.531 69.1875 253.594 66.9375C251.594 68.6875 249.312 70.0625 246.75 71.0625C244.25 72.0625 241.688 72.5625 239.062 72.5625C237.25 72.5625 235.531 72.125 233.906 71.25C232.281 70.375 230.844 69.25 229.594 67.875C228.344 66.5 227.344 64.9688 226.594 63.2812C225.844 61.5312 225.469 59.8125 225.469 58.125C225.469 55.125 226.375 52.5 228.188 50.25C230.062 48 232.344 46.0938 235.031 44.5312C237.719 42.9062 240.562 41.625 243.562 40.6875C246.625 39.75 249.344 39.125 251.719 38.8125C251.719 38.5 251.719 38.2188 251.719 37.9688C251.781 37.7188 251.812 37.4375 251.812 37.125C251.812 35.1875 251.281 33.625 250.219 32.4375C249.156 31.25 247.656 30.6562 245.719 30.6562C244.156 30.6562 242.812 30.9375 241.688 31.5C240.562 32 239.5 32.5938 238.5 33.2812C237.5 33.9062 236.5 34.5 235.5 35.0625C234.5 35.5625 233.375 35.8125 232.125 35.8125C230.75 35.8125 229.562 35.375 228.562 34.5C227.625 33.625 227.156 32.5 227.156 31.125C227.156 29.0625 227.75 27.1875 228.938 25.5C230.188 23.8125 231.719 22.4062 233.531 21.2812C235.406 20.0938 237.406 19.1875 239.531 18.5625C241.719 17.875 243.719 17.5312 245.531 17.5312C247.219 17.5312 248.906 17.75 250.594 18.1875C252.281 18.5625 253.875 19.1875 255.375 20.0625C256.875 20.875 258.219 21.9062 259.406 23.1562C260.656 24.3438 261.656 25.75 262.406 27.375C263.531 29.6875 264.438 32.1562 265.125 34.7812C265.812 37.3438 266.344 40 266.719 42.75C267.094 45.4375 267.344 48.1562 267.469 50.9062C267.594 53.5938 267.656 56.2188 267.656 58.7812ZM252.656 55.7812L252.375 49.4062C252.25 49.4062 252.125 49.4062 252 49.4062C251.875 49.3438 251.75 49.3125 251.625 49.3125C250.812 49.3125 249.781 49.5312 248.531 49.9688C247.344 50.3438 246.188 50.9062 245.062 51.6562C243.938 52.3438 242.969 53.125 242.156 54C241.406 54.875 241.031 55.7812 241.031 56.7188C241.031 57.5938 241.344 58.1875 241.969 58.5C242.594 58.8125 243.312 58.9688 244.125 58.9688C245.5 58.9688 246.969 58.625 248.531 57.9375C250.094 57.1875 251.469 56.4688 252.656 55.7812ZM288.75 6.5625C288.75 7.4375 288.5 8.21875 288 8.90625C287.562 9.59375 286.969 10.2188 286.219 10.7812C285.469 11.2812 284.656 11.6875 283.781 12C282.906 12.25 282.094 12.375 281.344 12.375C280.094 12.375 279 12.0625 278.062 11.4375C277.125 10.8125 276.656 9.84375 276.656 8.53125C276.656 7.59375 276.875 6.78125 277.312 6.09375C277.812 5.34375 278.406 4.75 279.094 4.3125C279.781 3.8125 280.562 3.4375 281.438 3.1875C282.312 2.9375 283.156 2.8125 283.969 2.8125C285.156 2.8125 286.25 3.09375 287.25 3.65625C288.25 4.21875 288.75 5.1875 288.75 6.5625ZM289.5 38.4375C289.5 39.3125 289.5 40.25 289.5 41.25C289.5 42.1875 289.469 43.0938 289.406 43.9688C289.344 45.0312 289.312 46.4688 289.312 48.2812C289.312 50.0312 289.25 51.9375 289.125 54C289 56.0625 288.781 58.1562 288.469 60.2812C288.219 62.4062 287.781 64.3438 287.156 66.0938C286.531 67.8438 285.688 69.2812 284.625 70.4062C283.625 71.4688 282.344 72.0312 280.781 72.0938C279.594 72.1562 278.594 71.6875 277.781 70.6875C276.969 69.6875 276.281 68.4062 275.719 66.8438C275.219 65.2188 274.844 63.4375 274.594 61.5C274.344 59.5 274.156 57.5938 274.031 55.7812C273.906 53.9062 273.844 52.1875 273.844 50.625C273.844 49.0625 273.844 47.9062 273.844 47.1562C273.844 46.1562 273.844 44.75 273.844 42.9375C273.844 41.0625 273.906 39.0625 274.031 36.9375C274.156 34.8125 274.375 32.6562 274.688 30.4688C275.062 28.2812 275.562 26.2812 276.188 24.4688C276.875 22.6562 277.75 21.1875 278.812 20.0625C279.875 18.9375 281.219 18.375 282.844 18.375C284.531 18.375 285.812 19.2188 286.688 20.9062C287.562 22.5938 288.219 24.5625 288.656 26.8125C289.094 29.0625 289.344 31.3125 289.406 33.5625C289.469 35.75 289.5 37.375 289.5 38.4375ZM322.781 74.625C321.719 74.625 320.875 74.125 320.25 73.125C319.625 72.1875 319.156 71.0938 318.844 69.8438C318.531 68.5938 318.312 67.3438 318.188 66.0938C318.125 64.7812 318.094 63.7812 318.094 63.0938C318.094 61.2188 318.188 59.3438 318.375 57.4688C318.625 55.5938 318.875 53.7188 319.125 51.8438C319.438 49.9688 319.688 48.0938 319.875 46.2188C320.125 44.3438 320.25 42.4688 320.25 40.5938C320.25 39.8438 320.219 39.0312 320.156 38.1562C320.094 37.2812 319.938 36.4688 319.688 35.7188C319.5 34.9062 319.156 34.25 318.656 33.75C318.156 33.25 317.5 33 316.688 33C316.125 33 315.5 33.4688 314.812 34.4062C314.125 35.2812 313.469 36.3125 312.844 37.5C312.281 38.625 311.781 39.7812 311.344 40.9688C310.969 42.0938 310.781 42.9375 310.781 43.5C310.781 44.875 310.781 46.2812 310.781 47.7188C310.844 49.0938 310.875 50.5 310.875 51.9375V57.375C310.812 58.5 310.719 59.6562 310.594 60.8438C310.469 62.0312 310.281 63.1875 310.031 64.3125C309.844 65.4375 309.562 66.5312 309.188 67.5938C308.812 68.5938 308.312 69.5 307.688 70.3125C307.125 71.0625 306.438 71.6875 305.625 72.1875C304.812 72.6875 303.844 72.9375 302.719 72.9375C301.469 72.9375 300.438 72.5312 299.625 71.7188C298.812 70.9062 298.156 69.875 297.656 68.625C297.156 67.3125 296.781 65.875 296.531 64.3125C296.344 62.6875 296.188 61.125 296.062 59.625C296 58.0625 295.969 56.6562 295.969 55.4062C296.031 54.0938 296.062 53.0625 296.062 52.3125V47.9062C296.062 45.5312 296 43.1875 295.875 40.875C295.812 38.5625 295.781 36.25 295.781 33.9375C295.781 32.6875 295.781 31.0938 295.781 29.1562C295.844 27.2188 296.094 25.3438 296.531 23.5312C296.969 21.6562 297.688 20.0625 298.688 18.75C299.688 17.4375 301.156 16.7812 303.094 16.7812C303.969 16.7812 304.75 17.0625 305.438 17.625C306.125 18.1875 306.719 18.875 307.219 19.6875C307.781 20.5 308.219 21.375 308.531 22.3125C308.906 23.25 309.188 24.0625 309.375 24.75C310 23.875 310.719 23.0312 311.531 22.2188C312.406 21.4062 313.375 20.6875 314.438 20.0625C315.5 19.4375 316.688 18.9375 318 18.5625C319.312 18.1875 320.812 18 322.5 18C325.688 18 328.156 18.7812 329.906 20.3438C331.719 21.8438 333.031 23.75 333.844 26.0625C334.719 28.3125 335.25 30.75 335.438 33.375C335.625 36 335.719 38.375 335.719 40.5C335.719 41.5625 335.625 43.1562 335.438 45.2812C335.25 47.3438 334.938 49.6562 334.5 52.2188C334.125 54.7188 333.594 57.3125 332.906 60C332.219 62.625 331.406 65.0312 330.469 67.2188C329.531 69.4062 328.406 71.1875 327.094 72.5625C325.844 73.9375 324.406 74.625 322.781 74.625ZM380.25 55.3125C380.25 57.4375 379.562 59.5312 378.188 61.5938C376.875 63.5938 375.188 65.4062 373.125 67.0312C371.125 68.5938 368.969 69.875 366.656 70.875C364.344 71.8125 362.219 72.2812 360.281 72.2812C356.969 72.2812 354 71.4688 351.375 69.8438C348.812 68.1562 346.656 66.0312 344.906 63.4688C343.156 60.9062 341.812 58.0938 340.875 55.0312C340 51.9062 339.562 48.875 339.562 45.9375C339.562 42.8125 340 39.4688 340.875 35.9062C341.75 32.3438 343.062 29.0625 344.812 26.0625C346.625 23.0625 348.875 20.5625 351.562 18.5625C354.312 16.5625 357.562 15.5625 361.312 15.5625C363.438 15.5625 365.469 15.9375 367.406 16.6875C369.344 17.375 371.031 18.375 372.469 19.6875C373.906 21 375.062 22.5625 375.938 24.375C376.812 26.1875 377.25 28.2188 377.25 30.4688C377.25 33.4062 376.625 36.1562 375.375 38.7188C374.125 41.2812 372.469 43.5 370.406 45.375C368.344 47.25 365.969 48.7812 363.281 49.9688C360.594 51.0938 357.844 51.7188 355.031 51.8438C355.281 53.6562 356 54.9688 357.188 55.7812C358.438 56.5938 359.906 57 361.594 57C362.844 57 364.062 56.6875 365.25 56.0625C366.438 55.4375 367.594 54.75 368.719 54C369.844 53.1875 370.938 52.4688 372 51.8438C373.125 51.2188 374.25 50.9062 375.375 50.9062C376.625 50.9062 377.75 51.3125 378.75 52.125C379.75 52.9375 380.25 54 380.25 55.3125ZM365.062 32.3438C365.062 31.5312 364.844 30.6875 364.406 29.8125C363.969 28.9375 363.281 28.5 362.344 28.5C360.969 28.5 359.812 28.875 358.875 29.625C357.938 30.3125 357.156 31.2188 356.531 32.3438C355.906 33.4062 355.406 34.5625 355.031 35.8125C354.719 37.0625 354.531 38.2188 354.469 39.2812C355.344 39.0938 356.375 38.8438 357.562 38.5312C358.812 38.2188 359.969 37.8125 361.031 37.3125C362.156 36.75 363.094 36.0625 363.844 35.25C364.656 34.4375 365.062 33.4688 365.062 32.3438Z" fill="#F880C0"/>
</svg>
